<svg width="22" height="22" viewBox="0 0 22 22" fill="none" xmlns="http://www.w3.org/2000/svg">
<path d="M10.725 2.75H4.58333C4.0971 2.75 3.63079 2.94315 3.28697 3.28697C2.94315 3.63079 2.75 4.0971 2.75 4.58333V19.25L6.41667 15.5833H17.4167C17.9029 15.5833 18.3692 15.3902 18.713 15.0464C19.0568 14.7025 19.25 14.2362 19.25 13.75V11.275" stroke="#59565C" stroke-width="1.7" stroke-linecap="round" stroke-linejoin="round"/>
<path d="M16.5 8.25C18.0188 8.25 19.25 7.01878 19.25 5.5C19.25 3.98122 18.0188 2.75 16.5 2.75C14.9812 2.75 13.75 3.98122 13.75 5.5C13.75 7.01878 14.9812 8.25 16.5 8.25Z" stroke="#905CC1" stroke-width="1.7" stroke-linecap="round" stroke-linejoin="round"/>
</svg>
