<svg width="22" height="22" viewBox="0 0 22 22" fill="none" xmlns="http://www.w3.org/2000/svg">
<g clip-path="url(#clip0_630_196)">
<path d="M12.8333 21.0833C12.8333 21.5893 12.4236 22 11.9167 22H3.66667C1.6445 22 0 20.3555 0 18.3333V4.58333C0 2.05608 2.05608 0 4.58333 0H13.75C16.2772 0 18.3333 2.05608 18.3333 4.58333V11.9167C18.3333 12.4227 17.9236 12.8333 17.4167 12.8333C16.9097 12.8333 16.5 12.4227 16.5 11.9167V4.58333C16.5 3.06717 15.2662 1.83333 13.75 1.83333H5.5V14.6667H8.25C8.75692 14.6667 9.16667 15.0773 9.16667 15.5833C9.16667 16.0893 8.75692 16.5 8.25 16.5H3.66667C2.65558 16.5 1.83333 17.3223 1.83333 18.3333C1.83333 19.3444 2.65558 20.1667 3.66667 20.1667H11.9167C12.4236 20.1667 12.8333 20.5773 12.8333 21.0833ZM1.83333 4.58333V15.1763C2.37508 14.861 2.99567 14.6667 3.66667 14.6667V2.002C2.60242 2.3815 1.83333 3.38983 1.83333 4.58333Z" fill="#59565C" stroke="white" stroke-width="0.3"/>
<path d="M21.6929 20.7048L21.2144 21.2548C20.7093 21.7607 20.0438 22 19.3811 22C15.9766 22 11 17.2856 11 13.6189C11 12.9562 11.2392 12.2907 11.7452 11.7856L12.2953 11.3071C12.7041 10.8982 13.3678 10.8982 13.7766 11.3071L14.8839 12.5006C15.2927 12.9094 15.2927 13.5731 14.8839 13.9819L13.9443 14.9316C14.7702 16.9886 16.1709 18.3324 18.0693 19.0566L19.019 18.117C19.4278 17.7082 20.0915 17.7082 20.5003 18.117L21.6938 19.2243C22.1027 19.6332 22.1027 20.2968 21.6938 20.7057L21.6929 20.7048Z" fill="#905CC1" stroke="white" stroke-width="0.3"/>
</g>
<defs>
<clipPath id="clip0_630_196">
<rect width="22" height="22" fill="white"/>
</clipPath>
</defs>
</svg>
