<svg width="18" height="18" viewBox="0 0 18 18" fill="none" xmlns="http://www.w3.org/2000/svg">
<g clip-path="url(#clip0_630_193)">
<path d="M18 3V12C18 13.6545 16.6545 15 15 15H12.861L9.97575 17.385C9.70425 17.6265 9.357 17.7488 9.00675 17.7488C8.64975 17.7488 8.28975 17.622 8.00325 17.367L5.19225 15H3C1.3455 15 0 13.6545 0 12V3C0 1.3455 1.3455 0 3 0H15C16.6545 0 18 1.3455 18 3ZM16.5 3C16.5 2.17275 15.8272 1.5 15 1.5H3C2.17275 1.5 1.5 2.17275 1.5 3V12C1.5 12.8273 2.17275 13.5 3 13.5H5.46675C5.64375 13.5 5.81475 13.5623 5.94975 13.6763L8.985 16.233L12.114 13.6718C12.2483 13.5608 12.4177 13.5 12.5918 13.5H15C15.8272 13.5 16.5 12.8273 16.5 12V3Z" fill="#59565C"/>
<path d="M12.75 6.75V9.75C12.75 10.1648 12.414 10.5 12 10.5C11.586 10.5 11.25 10.1648 11.25 9.75V7.08L7.2795 11.0318C7.13325 11.1772 6.94125 11.25 6.75 11.25C6.55725 11.25 6.36525 11.1758 6.21825 11.0288C5.92575 10.7348 5.92725 10.2608 6.2205 9.96825L10.2083 6H7.5C7.086 6 6.75 5.66475 6.75 5.25C6.75 4.83525 7.086 4.5 7.5 4.5H10.5C11.7405 4.5 12.75 5.5095 12.75 6.75Z" fill="#905CC1"/>
</g>
<defs>
<clipPath id="clip0_630_193">
<rect width="18" height="18" fill="white"/>
</clipPath>
</defs>
</svg>
