<svg width="22" height="22" viewBox="0 0 22 22" fill="none" xmlns="http://www.w3.org/2000/svg">
<path d="M7.33333 1.83333V5.49999" stroke="#59565C" stroke-width="1.5" stroke-linecap="round" stroke-linejoin="round"/>
<path d="M11 1.83333V5.49999" stroke="#59565C" stroke-width="1.5" stroke-linecap="round" stroke-linejoin="round"/>
<path d="M14.6667 1.83333V5.49999" stroke="#59565C" stroke-width="1.5" stroke-linecap="round" stroke-linejoin="round"/>
<path d="M14.6667 3.66666H16.5C16.9862 3.66666 17.4525 3.85981 17.7964 4.20363C18.1402 4.54744 18.3333 5.01376 18.3333 5.49999V7.33332" stroke="#59565C" stroke-width="1.5" stroke-linecap="round" stroke-linejoin="round"/>
<path d="M18.3304 7.48L18.3304 16.72" stroke="#59565C" stroke-width="1.5" stroke-linecap="round" stroke-linejoin="round"/>
<path d="M18.3333 16.5V18.3333C18.3333 18.8196 18.1402 19.2859 17.7964 19.6297C17.4525 19.9735 16.9862 20.1667 16.5 20.1667H15.5833" stroke="#59565C" stroke-width="1.5" stroke-linecap="round" stroke-linejoin="round"/>
<path d="M15.84 20.1696L6.16 20.1696" stroke="#59565C" stroke-width="1.5" stroke-linecap="round" stroke-linejoin="round"/>
<path d="M6.41667 20.1667H5.5C5.01377 20.1667 4.54746 19.9735 4.20364 19.6297C3.85982 19.2859 3.66667 18.8196 3.66667 18.3333V16.5" stroke="#59565C" stroke-width="1.5" stroke-linecap="round" stroke-linejoin="round"/>
<path d="M3.6696 16.72L3.6696 7.03999" stroke="#59565C" stroke-width="1.5" stroke-linecap="round" stroke-linejoin="round"/>
<path d="M3.66667 7.33332V5.49999C3.66667 5.01376 3.85982 4.54744 4.20364 4.20363C4.54746 3.85981 5.01377 3.66666 5.5 3.66666H7.33333" stroke="#59565C" stroke-width="1.5" stroke-linecap="round" stroke-linejoin="round"/>
<path d="M7.33333 9.16666H12.8333" stroke="#905CC1" stroke-width="1.5" stroke-linecap="round" stroke-linejoin="round"/>
<path d="M7.33333 12.8333H14.6667" stroke="#905CC1" stroke-width="1.5" stroke-linecap="round" stroke-linejoin="round"/>
<path d="M7.33333 16.5H11.9167" stroke="#905CC1" stroke-width="1.5" stroke-linecap="round" stroke-linejoin="round"/>
</svg>
