<?xml version="1.0" encoding="utf-8"?>
<!-- Generator: Adobe Illustrator 28.0.0, SVG Export Plug-In . SVG Version: 6.00 Build 0)  -->
<svg version="1.1" id="hub_xA0_Image_00000122681875346563708870000004669212332813311643_"
	 xmlns="http://www.w3.org/2000/svg" xmlns:xlink="http://www.w3.org/1999/xlink" x="0px" y="0px" width="16px" height="16px"
	 viewBox="0 0 16 16" style="enable-background:new 0 0 16 16;" xml:space="preserve">
<style type="text/css">
	.st0{fill:#8F0DBF;}
	.st1{fill:#FFFFFF;}
	.st2{enable-background:new    ;}
</style>
<circle class="st0" cx="8" cy="8" r="8"/>
<g>
	<g>
		<path class="st1" d="M8.9,5.3h5.6c0.4,0,0.8,0.4,0.8,0.8v2.2c0,0.5-0.4,0.8-0.8,0.8H8.9c-0.4,0-0.8-0.4-0.8-0.8V6.1
			C8.1,5.7,8.4,5.3,8.9,5.3z"/>
		<g class="st2">
			<path class="st0" d="M11,8.7H9.9c0.1,0,0.4,0,0.4-0.3V7.3c0-0.3-0.1-0.4-0.3-0.4C9.8,6.9,9.5,7.3,9.5,8v0.3
				c0,0.3,0.2,0.3,0.4,0.3H8.7c0.1,0,0.4,0,0.4-0.3l0-2c0-0.2-0.1-0.3-0.3-0.3h0C9.1,6,9.2,5.9,9.5,5.8v1.6c0.1-0.3,0.3-0.7,0.7-0.7
				c0.3,0,0.5,0.2,0.5,0.6l0,1C10.7,8.7,10.9,8.6,11,8.7z"/>
			<path class="st0" d="M13,8.7h-0.8V8c-0.1,0.3-0.2,0.7-0.6,0.7c-0.3,0-0.5-0.2-0.5-0.7V7.3C11.1,7,11,7,10.8,7h0l0.8-0.3v1.4
				c0,0.2,0.1,0.4,0.3,0.4c0.2,0,0.4-0.5,0.4-1V7.3C12.2,7,12.2,7,11.9,7h0l0.8-0.3l0,1.7C12.6,8.7,12.9,8.6,13,8.7z"/>
			<path class="st0" d="M14.7,7.5c0,0.6-0.4,1.2-1.1,1.2h-0.9c0.1,0,0.4,0,0.4-0.3l0-2c0-0.2-0.1-0.3-0.3-0.3h0
				C13,6,13.1,5.9,13.4,5.8V7c0.1-0.2,0.3-0.3,0.5-0.3C14.4,6.7,14.7,7.1,14.7,7.5z M14.3,7.5c0-0.3-0.1-0.7-0.5-0.7
				c-0.2,0-0.4,0.3-0.4,0.5v1.2c0.1,0,0.2,0,0.2,0C14,8.5,14.3,8.1,14.3,7.5z"/>
		</g>
	</g>
	<g class="st2">
		<path class="st1" d="M3,8.2L3,8.2C2.9,8.5,2.5,8.7,2.1,8.7c-1.8,0-1.8-3,0-3c0.4,0,0.7,0.1,0.9,0.3L3,6.6C2.9,6.1,2.6,5.8,2.2,5.8
			c-1.2,0-1.3,2.6,0.1,2.6C2.7,8.5,2.9,8.4,3,8.2z"/>
		<path class="st1" d="M5.3,8.7H4.1c0.1,0,0.4,0,0.4-0.3V7.3c0-0.3-0.1-0.4-0.3-0.4C4,6.8,3.7,7.3,3.7,8v0.3c0,0.3,0.3,0.3,0.4,0.3
			H2.9c0.1,0,0.4,0,0.4-0.3l0-1.1C3.3,7,3.2,7,2.9,7h0c0.4-0.1,0.4-0.2,0.8-0.3v0.7C3.8,7,4,6.7,4.4,6.7c0.4,0,0.5,0.2,0.5,0.7l0,1
			C4.9,8.7,5.2,8.7,5.3,8.7z"/>
		<path class="st1" d="M6.7,8.6c0-0.1,0-0.2,0-0.3L6.2,7.4L5.7,8.3C5.6,8.4,5.5,8.5,5.6,8.6C5.7,8.7,5.8,8.7,6,8.7H4.8
			c0.2,0,0.4,0,0.5-0.1c0.1-0.1,0.2-0.2,0.3-0.4l0.5-0.8l-0.6-1C5.5,6.2,5.5,6.1,5.4,6.1C5.4,6,5.3,5.9,5.2,5.9
			C5.2,5.9,5.1,5.8,5,5.8c-0.1,0-0.2,0-0.3,0h1.4c-0.1,0-0.2,0-0.2,0c-0.1,0-0.1,0.1-0.1,0.1c0,0,0,0.1,0,0.2c0,0.1,0,0.1,0.1,0.2
			l0.5,0.8l0.5-0.8C7,6.1,7.1,5.9,7,5.9C6.9,5.8,6.8,5.8,6.6,5.8h1.1C7.3,5.8,7.1,6,7,6.3L6.4,7.1l0.6,1.1c0.1,0.2,0.2,0.3,0.3,0.4
			c0.1,0.1,0.3,0.1,0.5,0.1H6.4C6.6,8.7,6.7,8.7,6.7,8.6z"/>
	</g>
	<g>
		<path class="st1" d="M2.2,10.4c-0.1,0-0.1,0-0.1,0c0,0-0.1,0-0.1-0.1c0,0,0-0.1,0-0.1c0-0.1,0-0.1,0-0.2c0-0.1,0-0.1,0-0.2
			c0-0.1,0-0.1,0-0.1c0,0,0.1-0.1,0.1-0.1c0,0,0.1,0,0.1,0c0,0,0.1,0,0.1,0c0,0,0.1,0,0.1,0s0,0,0.1,0l0,0.1c0,0,0,0-0.1,0
			c0,0,0,0-0.1,0c0,0,0,0-0.1,0c0,0-0.1,0-0.1,0c0,0,0,0-0.1,0.1c0,0,0,0.1,0,0.1c0,0,0,0.1,0,0.1c0,0.1,0,0.1,0,0.1
			c0,0,0,0.1,0,0.1c0,0,0,0,0.1,0.1C2.1,10.3,2.1,10.4,2.2,10.4c0-0.1,0.1-0.1,0.1-0.1c0,0,0.1,0,0.1,0l0,0.1c0,0,0,0-0.1,0
			C2.3,10.4,2.3,10.4,2.2,10.4C2.2,10.4,2.2,10.4,2.2,10.4z"/>
		<path class="st1" d="M2.7,10.4c-0.1,0-0.1,0-0.1,0c0,0-0.1-0.1-0.1-0.1c0,0,0-0.1,0-0.2c0-0.1,0-0.1,0-0.2c0,0,0-0.1,0.1-0.1
			c0,0,0.1,0,0.1,0c0.1,0,0.1,0,0.1,0c0,0,0.1,0.1,0.1,0.1c0,0,0,0.1,0,0.2c0,0.1,0,0.1,0,0.2c0,0,0,0.1-0.1,0.1
			C2.8,10.4,2.8,10.4,2.7,10.4z M2.7,10.4C2.8,10.4,2.8,10.4,2.7,10.4c0.1,0,0.1-0.1,0.1-0.1c0,0,0-0.1,0-0.1c0-0.1,0-0.1,0-0.1
			c0,0,0-0.1,0-0.1c0,0-0.1,0-0.1,0c0,0-0.1,0-0.1,0c0,0,0,0,0,0.1c0,0,0,0.1,0,0.1c0,0.1,0,0.1,0,0.1C2.6,10.3,2.6,10.3,2.7,10.4
			C2.6,10.4,2.7,10.4,2.7,10.4z"/>
		<path class="st1" d="M3.1,10.4V9.9h0.1v0c0,0,0,0,0,0c0,0,0,0,0.1,0c0,0,0,0,0.1,0c0,0,0.1,0,0.1,0c0,0,0,0,0.1,0c0,0,0,0.1,0,0.1
			c0,0,0,0.1,0,0.1v0.3H3.5v-0.3c0,0,0-0.1,0-0.1s0-0.1,0-0.1c0,0,0,0-0.1,0c0,0,0,0-0.1,0c0,0,0,0-0.1,0c0,0,0,0,0,0L3.1,10.4
			L3.1,10.4z"/>
		<path class="st1" d="M3.7,10.4V9.9h0.1v0c0,0,0,0,0,0c0,0,0,0,0.1,0c0,0,0,0,0.1,0c0,0,0.1,0,0.1,0c0,0,0,0,0.1,0c0,0,0,0.1,0,0.1
			c0,0,0,0.1,0,0.1v0.3H4.1v-0.3c0,0,0-0.1,0-0.1s0-0.1,0-0.1c0,0,0,0-0.1,0c0,0,0,0-0.1,0c0,0,0,0-0.1,0c0,0,0,0,0,0L3.7,10.4
			L3.7,10.4z"/>
		<path class="st1" d="M4.5,10.4c-0.1,0-0.1,0-0.1,0c0,0-0.1-0.1-0.1-0.1c0,0,0-0.1,0-0.2c0-0.1,0-0.1,0-0.2c0,0,0-0.1,0.1-0.1
			c0,0,0.1,0,0.1,0c0.1,0,0.1,0,0.2,0.1c0,0,0.1,0.1,0.1,0.2l0,0.1H4.4c0,0.1,0,0.1,0,0.1C4.5,10.3,4.5,10.4,4.5,10.4
			C4.6,10.4,4.6,10.4,4.5,10.4c0.1-0.1,0.1-0.1,0.2-0.1c0,0,0,0,0.1,0l0,0.1c0,0,0,0-0.1,0C4.7,10.4,4.6,10.4,4.5,10.4
			C4.6,10.4,4.6,10.4,4.5,10.4z M4.4,10.1h0.3c0-0.1,0-0.1,0-0.1c0,0-0.1,0-0.1,0c0,0-0.1,0-0.1,0c0,0,0,0-0.1,0.1
			C4.4,10,4.4,10.1,4.4,10.1z"/>
		<path class="st1" d="M5.1,10.4c-0.1,0-0.1,0-0.1,0s-0.1-0.1-0.1-0.1c0,0,0-0.1,0-0.2c0-0.1,0-0.1,0-0.2c0,0,0-0.1,0.1-0.1
			c0,0,0.1,0,0.1,0c0,0,0,0,0,0s0,0,0.1,0c0,0,0,0,0.1,0l0,0.1c0,0,0,0,0,0c0,0,0,0,0,0c0,0,0,0,0,0c0,0-0.1,0-0.1,0C5,10,5,10,5,10
			c0,0,0,0.1,0,0.1c0,0.1,0,0.1,0,0.1c0,0,0,0.1,0,0.1C5.1,10.4,5.1,10.4,5.1,10.4C5.2,10.4,5.2,10.4,5.1,10.4
			c0.1-0.1,0.1-0.1,0.1-0.1c0,0,0,0,0,0l0,0.1c0,0,0,0-0.1,0C5.2,10.4,5.2,10.4,5.1,10.4C5.2,10.4,5.1,10.4,5.1,10.4z"/>
		<path class="st1" d="M5.6,10.4C5.6,10.4,5.5,10.4,5.6,10.4c-0.1,0-0.1-0.1-0.1-0.1c0,0,0-0.1,0-0.1V9.9H5.4V9.9h0.1V9.7h0.1v0.2
			h0.2v0.1H5.5v0.3c0,0,0,0.1,0,0.1C5.5,10.3,5.6,10.3,5.6,10.4C5.6,10.4,5.6,10.4,5.6,10.4C5.6,10.4,5.6,10.4,5.6,10.4
			C5.7,10.4,5.7,10.4,5.6,10.4c0.1-0.1,0.1-0.1,0.1-0.1l0,0.1C5.7,10.4,5.7,10.4,5.6,10.4C5.7,10.4,5.7,10.4,5.6,10.4
			C5.6,10.4,5.6,10.4,5.6,10.4z"/>
		<path class="st1" d="M5.8,10.4L6,10L5.8,9.6h0.1L6.1,10l0.2-0.3h0.1L6.1,10l0.2,0.4H6.3l-0.2-0.3L5.8,10.4L5.8,10.4z"/>
		<path class="st1" d="M6.8,10.7l0.1-0.3H6.8L6.7,9.9h0.1l0.1,0.5h0l0.1-0.5h0.1L6.8,10.7L6.8,10.7z"/>
		<path class="st1" d="M7.5,10.4c-0.1,0-0.1,0-0.1,0c0,0-0.1-0.1-0.1-0.1c0,0,0-0.1,0-0.2c0-0.1,0-0.1,0-0.2c0,0,0-0.1,0.1-0.1
			c0,0,0.1,0,0.1,0c0.1,0,0.1,0,0.1,0c0,0,0.1,0.1,0.1,0.1c0,0,0,0.1,0,0.2c0,0.1,0,0.1,0,0.2c0,0,0,0.1-0.1,0.1
			C7.6,10.4,7.6,10.4,7.5,10.4z M7.5,10.4C7.5,10.4,7.6,10.4,7.5,10.4c0.1,0,0.1-0.1,0.1-0.1c0,0,0-0.1,0-0.1c0-0.1,0-0.1,0-0.1
			c0,0,0-0.1,0-0.1c0,0-0.1,0-0.1,0c0,0-0.1,0-0.1,0c0,0,0,0,0,0.1c0,0,0,0.1,0,0.1c0,0.1,0,0.1,0,0.1C7.3,10.3,7.4,10.3,7.5,10.4
			C7.4,10.4,7.4,10.4,7.5,10.4z"/>
		<path class="st1" d="M8,10.4c0,0-0.1,0-0.1,0c0,0,0-0.1-0.1-0.1c0,0,0-0.1,0-0.2V9.9H8v0.3c0,0.1,0,0.1,0,0.1c0,0,0,0.1,0,0.1
			C8,10.4,8,10.4,8,10.4c0.1-0.1,0.1-0.1,0.1-0.1s0,0,0.1,0V9.9h0.1v0.6H8.2v0c0,0-0.1,0-0.1,0C8.1,10.4,8.1,10.4,8,10.4z"/>
		<path class="st1" d="M8.5,10.4V9.9h0.1v0.1c0,0,0,0,0.1,0c0,0,0,0,0.1,0c0,0,0.1,0,0.1,0v0.1c0,0-0.1,0-0.1,0c0,0-0.1,0-0.1,0
			c0,0,0,0-0.1,0L8.5,10.4L8.5,10.4z"/>
		<path class="st1" d="M9.3,10.4c-0.1,0-0.1,0-0.1,0s-0.1-0.1-0.1-0.1c0,0,0-0.1,0-0.2c0-0.1,0-0.1,0-0.2c0,0,0-0.1,0.1-0.1
			c0,0,0.1,0,0.1,0c0,0,0,0,0,0c0,0,0,0,0.1,0c0,0,0,0,0.1,0l0,0.1c0,0,0,0,0,0c0,0,0,0,0,0c0,0,0,0,0,0c0,0-0.1,0-0.1,0
			c0,0,0,0-0.1,0.1c0,0,0,0.1,0,0.1c0,0.1,0,0.1,0,0.1c0,0,0,0.1,0,0.1C9.3,10.4,9.3,10.4,9.3,10.4C9.4,10.4,9.4,10.4,9.3,10.4
			c0.1-0.1,0.1-0.1,0.1-0.1c0,0,0,0,0,0l0,0.1c0,0,0,0-0.1,0C9.4,10.4,9.4,10.4,9.3,10.4C9.4,10.4,9.4,10.4,9.3,10.4z"/>
		<path class="st1" d="M9.8,10.4c0,0-0.1,0-0.1,0c0,0,0-0.1-0.1-0.1c0,0,0-0.1,0-0.2V9.9h0.1v0.3c0,0.1,0,0.1,0,0.1c0,0,0,0.1,0,0.1
			C9.8,10.4,9.8,10.4,9.8,10.4c0.1-0.1,0.1-0.1,0.1-0.1s0,0,0.1,0V9.9h0.1v0.6H10v0c0,0-0.1,0-0.1,0C9.9,10.4,9.8,10.4,9.8,10.4z"/>
		<path class="st1" d="M10.4,10.4C10.4,10.4,10.4,10.4,10.4,10.4c-0.1,0-0.1,0-0.1,0c0,0,0,0-0.1,0l0-0.1c0,0,0,0,0.1,0
			C10.3,10.4,10.3,10.4,10.4,10.4C10.4,10.4,10.4,10.4,10.4,10.4C10.4,10.4,10.5,10.4,10.4,10.4c0.1-0.1,0.1-0.1,0.1-0.1
			c0,0,0,0,0-0.1c0,0,0,0,0,0c0,0,0,0,0,0s-0.1,0-0.1,0c0,0-0.1,0-0.1,0c0,0-0.1,0-0.1,0c0,0,0-0.1,0-0.1c0,0,0-0.1,0-0.1
			c0,0,0,0,0.1-0.1c0,0,0.1,0,0.1,0c0,0,0,0,0.1,0s0.1,0,0.1,0c0,0,0,0,0.1,0l0,0.1c0,0,0,0-0.1,0c0,0,0,0-0.1,0c0,0,0,0-0.1,0
			c0,0,0,0-0.1,0c0,0,0,0,0,0c0,0,0,0,0,0.1c0,0,0,0,0,0c0,0,0,0,0,0c0,0,0.1,0,0.1,0c0,0,0.1,0,0.1,0c0,0,0,0,0.1,0c0,0,0,0,0,0.1
			c0,0,0,0.1,0,0.1c0,0,0,0-0.1,0.1C10.5,10.4,10.5,10.4,10.4,10.4z"/>
		<path class="st1" d="M11,10.4C10.9,10.4,10.9,10.4,11,10.4c-0.1,0-0.1-0.1-0.1-0.1c0,0,0-0.1,0-0.1V9.9h-0.1V9.9h0.1V9.7h0.1v0.2
			h0.2v0.1h-0.2v0.3c0,0,0,0.1,0,0.1C10.9,10.3,10.9,10.3,11,10.4C10.9,10.4,11,10.4,11,10.4C11,10.4,11,10.4,11,10.4
			C11,10.4,11,10.4,11,10.4c0.1-0.1,0.1-0.1,0.1-0.1l0,0.1C11.1,10.4,11.1,10.4,11,10.4C11,10.4,11,10.4,11,10.4
			C11,10.4,11,10.4,11,10.4z"/>
		<path class="st1" d="M11.4,10.4c-0.1,0-0.1,0-0.1,0c0,0-0.1-0.1-0.1-0.1c0,0,0-0.1,0-0.2c0-0.1,0-0.1,0-0.2c0,0,0-0.1,0.1-0.1
			c0,0,0.1,0,0.1,0c0.1,0,0.1,0,0.1,0c0,0,0.1,0.1,0.1,0.1c0,0,0,0.1,0,0.2c0,0.1,0,0.1,0,0.2c0,0,0,0.1-0.1,0.1
			C11.5,10.4,11.5,10.4,11.4,10.4z M11.4,10.4C11.4,10.4,11.5,10.4,11.4,10.4c0.1,0,0.1-0.1,0.1-0.1c0,0,0-0.1,0-0.1
			c0-0.1,0-0.1,0-0.1c0,0,0-0.1,0-0.1c0,0-0.1,0-0.1,0c0,0-0.1,0-0.1,0c0,0,0,0,0,0.1c0,0,0,0.1,0,0.1c0,0.1,0,0.1,0,0.1
			c0,0,0,0.1,0,0.1C11.3,10.4,11.4,10.4,11.4,10.4z"/>
		<path class="st1" d="M11.8,10.4V9.9h0.1v0c0,0,0,0,0,0c0,0,0,0,0.1,0c0,0,0,0,0.1,0c0,0,0.1,0,0.1,0c0,0,0,0,0.1,0c0,0,0,0,0.1,0
			c0,0,0,0,0.1,0c0,0,0.1,0,0.1,0c0,0,0.1,0,0.1,0c0,0,0,0,0.1,0c0,0,0,0.1,0,0.1c0,0,0,0.1,0,0.1v0.3h-0.1v-0.3c0,0,0-0.1,0-0.1
			c0,0,0-0.1,0-0.1c0,0,0,0-0.1,0c0,0,0,0-0.1,0c0,0,0,0-0.1,0c0,0,0,0,0,0c0,0,0,0,0,0.1c0,0,0,0.1,0,0.1v0.3h-0.1v-0.3
			c0-0.1,0-0.1,0-0.1c0,0,0-0.1,0-0.1c0,0,0,0-0.1,0c0,0,0,0-0.1,0c0,0,0,0-0.1,0c0,0,0,0,0,0L11.8,10.4L11.8,10.4z"/>
		<path class="st1" d="M13,10.4c-0.1,0-0.1,0-0.1,0c0,0-0.1-0.1-0.1-0.1c0,0,0-0.1,0-0.2c0-0.1,0-0.1,0-0.2c0,0,0-0.1,0.1-0.1
			c0,0,0.1,0,0.1,0c0.1,0,0.1,0,0.2,0.1c0,0,0.1,0.1,0.1,0.2l0,0.1h-0.4c0,0.1,0,0.1,0,0.1C12.9,10.3,12.9,10.4,13,10.4
			C13,10.4,13,10.4,13,10.4c0.1-0.1,0.1-0.1,0.2-0.1c0,0,0,0,0.1,0l0,0.1c0,0,0,0-0.1,0C13.1,10.4,13.1,10.4,13,10.4
			C13,10.4,13,10.4,13,10.4z M12.8,10.1h0.3c0-0.1,0-0.1,0-0.1s-0.1,0-0.1,0c0,0-0.1,0-0.1,0c0,0,0,0-0.1,0.1S12.8,10.1,12.8,10.1z"
			/>
		<path class="st1" d="M13.3,10.4V9.9h0.1v0.1c0,0,0,0,0.1,0c0,0,0,0,0.1,0c0,0,0.1,0,0.1,0v0.1c0,0-0.1,0-0.1,0c0,0-0.1,0-0.1,0
			c0,0,0,0-0.1,0L13.3,10.4L13.3,10.4z"/>
		<path class="st1" d="M13.9,10.4C13.9,10.4,13.9,10.4,13.9,10.4c-0.1,0-0.1,0-0.1,0c0,0,0,0-0.1,0l0-0.1c0,0,0,0,0.1,0
			C13.8,10.4,13.8,10.4,13.9,10.4C13.9,10.4,13.9,10.4,13.9,10.4C13.9,10.4,14,10.4,13.9,10.4c0.1-0.1,0.1-0.1,0.1-0.1
			c0,0,0,0,0-0.1c0,0,0,0,0,0c0,0,0,0,0,0c0,0-0.1,0-0.1,0c0,0-0.1,0-0.1,0s-0.1,0-0.1,0s0-0.1,0-0.1c0,0,0-0.1,0-0.1
			c0,0,0,0,0.1-0.1c0,0,0.1,0,0.1,0c0,0,0,0,0.1,0s0.1,0,0.1,0c0,0,0,0,0.1,0l0,0.1c0,0,0,0-0.1,0c0,0,0,0-0.1,0c0,0,0,0-0.1,0
			c0,0,0,0-0.1,0c0,0,0,0,0,0c0,0,0,0,0,0.1c0,0,0,0,0,0c0,0,0,0,0,0s0.1,0,0.1,0c0,0,0.1,0,0.1,0c0,0,0,0,0.1,0c0,0,0,0,0,0.1
			c0,0,0,0.1,0,0.1c0,0,0,0-0.1,0.1C14,10.4,14,10.4,13.9,10.4z"/>
	</g>
</g>
</svg>
