<svg width="25" height="25" viewBox="0 0 25 25" fill="none" xmlns="http://www.w3.org/2000/svg">
<path d="M10.6958 21.875C10.8787 22.1917 11.1417 22.4547 11.4583 22.6375C11.775 22.8203 12.1343 22.9166 12.5 22.9166C12.8657 22.9166 13.2249 22.8203 13.5416 22.6375C13.8583 22.4547 14.1213 22.1917 14.3041 21.875" stroke="#59565C" stroke-width="2" stroke-linecap="round" stroke-linejoin="round"/>
<path d="M14.4958 2.41041C13.5557 2.09361 12.5537 2.00516 11.5726 2.15237C10.5915 2.29958 9.65956 2.67822 8.85382 3.25698C8.04807 3.83575 7.39167 4.598 6.93889 5.48072C6.48612 6.36344 6.24998 7.34126 6.25001 8.33333C6.25001 13.0198 4.78022 14.5375 3.39584 15.9656C3.25998 16.1149 3.17043 16.3005 3.13809 16.4998C3.10575 16.699 3.132 16.9034 3.21366 17.088C3.29532 17.2727 3.42887 17.4296 3.59806 17.5397C3.76725 17.6498 3.9648 17.7084 4.16667 17.7083H20.8333C21.0352 17.7084 21.2328 17.6498 21.402 17.5397C21.5711 17.4296 21.7047 17.2727 21.7864 17.088C21.868 16.9034 21.8943 16.699 21.8619 16.4998C21.8296 16.3005 21.74 16.1149 21.6042 15.9656C21.3898 15.7449 21.1864 15.5137 20.9948 15.2729" stroke="#59565C" stroke-width="2" stroke-linecap="round" stroke-linejoin="round"/>
<path d="M18.75 11.4583C20.4759 11.4583 21.875 10.0592 21.875 8.33333C21.875 6.60744 20.4759 5.20833 18.75 5.20833C17.0241 5.20833 15.625 6.60744 15.625 8.33333C15.625 10.0592 17.0241 11.4583 18.75 11.4583Z" stroke="#905CC1" stroke-width="2" stroke-linecap="round" stroke-linejoin="round"/>
</svg>
