<svg width="38" height="38" viewBox="0 0 38 38" fill="none" xmlns="http://www.w3.org/2000/svg">
<path d="M34.3435 15.004L31 11.68V8.5C31 4.3645 27.6355 1 23.5 1H14.5C10.3645 1 7 4.3645 7 8.5V11.611L3.637 14.9755C1.9375 16.675 1 18.9355 1 21.3385V29.4985C1 31.5025 1.78 33.3865 3.196 34.8025C4.612 36.22 6.496 37 8.5 37H29.4985C33.634 37 36.9985 33.6355 36.9985 29.5V21.388C36.9985 19.009 36.031 16.6825 34.3435 15.004ZM10 8.5C10 6.019 12.019 4 14.5 4H23.5C25.981 4 28 6.019 28 8.5V19.4095L22.2265 25.1815C20.53 26.878 17.5585 26.875 15.862 25.1815L10 19.318V8.5ZM34 29.5C34 31.981 31.981 34 29.5 34H8.5015C7.2985 34 6.1675 33.532 5.3185 32.6815C4.4695 31.8325 4.0015 30.7015 4.0015 29.4985V21.337C4.0015 20.2765 4.2985 19.27 4.8115 18.373L13.741 27.304C15.1555 28.717 17.0395 29.494 19.045 29.494C21.0505 29.494 22.933 28.7155 24.3475 27.3025L33.1975 18.4525C33.7 19.3465 33.9985 20.353 33.9985 21.3865V29.4985L34 29.5ZM13 9.25C13 8.008 14.008 7 15.25 7C16.492 7 17.5 8.008 17.5 9.25C17.5 10.492 16.492 11.5 15.25 11.5C14.008 11.5 13 10.492 13 9.25ZM20.5 9.25C20.5 8.008 21.508 7 22.75 7C23.992 7 25 8.008 25 9.25C25 10.492 23.992 11.5 22.75 11.5C21.508 11.5 20.5 10.492 20.5 9.25ZM19 14.5C21.4855 14.5 23.5 16.5145 23.5 19C23.5 21.4855 21.4855 23.5 19 23.5C16.5145 23.5 14.5 21.4855 14.5 19C14.5 16.5145 16.5145 14.5 19 14.5Z" fill="#4153BC" stroke="white"/>
</svg>
