<svg width="35" height="32" viewBox="0 0 35 32" fill="none" xmlns="http://www.w3.org/2000/svg">
<path d="M13.115 30.1007C13.2849 30.1007 13.456 30.1007 13.6259 30.1007C19.1211 30.1007 24.6151 30.1007 30.1103 30.1007C30.2885 30.1007 30.468 30.0971 30.6438 30.116C31.1749 30.1724 31.5373 30.5466 31.5492 31.0338C31.5599 31.508 31.1915 31.914 30.6723 31.9869C30.5404 32.0058 30.4062 31.9987 30.2719 31.9987C20.5897 31.9987 10.9062 31.9987 1.22396 31.9987C0.483737 31.9987 0.0678835 31.7151 0.00728769 31.1738C-0.0568726 30.5984 0.306702 30.163 0.936423 30.1171C1.37723 30.0854 1.8216 30.1113 2.18042 30.1113C2.58439 27.8261 2.99193 25.608 3.36263 23.3828C3.63472 21.7507 3.99829 20.1563 4.81218 18.6889C5.39556 17.637 6.11439 16.6909 6.97224 15.8448C8.34931 14.4846 9.72044 13.1172 11.1034 11.7617C11.2924 11.5757 11.3233 11.4216 11.2769 11.1521C11.0607 9.89187 10.8896 8.62456 10.7137 7.35842C10.6472 6.87597 10.8159 6.46177 11.1629 6.11817C13.0532 4.24602 14.9424 2.37388 16.8339 0.502914C17.2723 0.0698857 17.7927 -0.0760261 18.3844 0.125191C18.9821 0.328762 19.2696 0.786501 19.3599 1.38074C19.5072 2.35388 19.6296 3.33172 19.8019 4.30133C19.8566 4.6061 20.0395 4.88733 20.2118 5.2933C20.8606 4.32016 21.4119 3.48822 21.9667 2.65864C22.6713 1.60431 23.6194 1.50782 24.5224 2.40095C26.9391 4.79202 29.3547 7.18309 31.769 9.57651C32.6482 10.4485 32.5555 11.3886 31.5195 12.0806C30.6842 12.6383 29.8418 13.1878 28.9958 13.7444C29.1943 14.0986 29.4889 14.221 29.8656 14.2669C30.866 14.3904 31.864 14.5399 32.8609 14.694C33.4478 14.7846 33.8744 15.0976 34.0669 15.6707C34.2605 16.2461 34.1037 16.7474 33.6831 17.1651C31.7856 19.0502 29.8846 20.9329 27.9812 22.8121C27.6105 23.1781 27.1673 23.3064 26.6374 23.2216C25.3351 23.0122 24.0294 22.8227 22.7212 22.6474C22.6 22.6309 22.4289 22.7474 22.3279 22.8474C21.0091 24.1418 19.6878 25.4338 18.3892 26.747C16.9397 28.2132 15.2655 29.3111 13.2813 29.9289C13.2184 29.9489 13.1601 29.9818 13.1007 30.0089C13.1043 30.0407 13.1102 30.0701 13.115 30.1007ZM18.969 6.67004C18.9346 6.69946 18.8645 6.75124 18.8039 6.81243C15.2549 10.3273 11.7035 13.8421 8.15802 17.3616C7.09224 18.4195 6.32707 19.6691 5.85894 21.0883C5.81023 21.2377 5.86963 21.5001 5.98013 21.6119C8.0891 23.7253 10.2159 25.821 12.3308 27.9285C12.5162 28.1132 12.6694 28.1379 12.9154 28.0532C14.4029 27.5472 15.6921 26.7329 16.8006 25.6351C20.2772 22.1932 23.7537 18.7501 27.2279 15.3071C27.3182 15.2177 27.399 15.1176 27.4453 15.0647C24.6092 12.2547 21.798 9.47179 18.969 6.67004ZM21.6804 6.53002C23.6527 8.51512 25.5965 10.4708 27.5392 12.4253C28.4564 11.8217 29.3024 11.2651 30.1567 10.7026C27.9015 8.42687 25.6833 6.18877 23.4258 3.91184C22.802 4.8485 22.2471 5.68043 21.6804 6.53002ZM10.2313 28.6568C8.55961 26.9977 6.91283 25.3644 5.24823 23.7123C4.91673 25.6633 4.58168 27.6331 4.23117 29.6971C6.30925 29.337 8.27208 28.9969 10.2313 28.6568ZM31.6965 16.5638C31.6632 16.5167 31.63 16.4697 31.5979 16.4226C30.9266 16.3249 30.2541 16.2379 29.5863 16.1261C29.281 16.0755 29.0671 16.1496 28.8438 16.3744C27.4299 17.797 25.9993 19.2032 24.5747 20.6152C24.4737 20.7152 24.3799 20.8235 24.2409 20.9706C25.0072 21.08 25.7118 21.1636 26.4104 21.2883C26.6778 21.3354 26.8477 21.2742 27.033 21.0883C28.3245 19.7939 29.6256 18.5077 30.9302 17.2263C31.169 16.9898 31.4399 16.7839 31.6965 16.5638ZM17.5979 2.55862C17.5551 2.53627 17.5123 2.51391 17.4696 2.49038C17.3888 2.59275 17.3175 2.70454 17.2248 2.79632C15.9273 4.08482 14.6501 5.39449 13.3158 6.64416C12.8025 7.12543 12.5601 7.58435 12.7585 8.28214C12.8952 8.76223 12.9237 9.27292 13.0033 9.78479C13.09 9.74949 13.1233 9.74478 13.1423 9.72596C14.6952 8.19271 16.2493 6.65945 17.7963 5.12032C17.87 5.04736 17.9329 4.91322 17.9211 4.81673C17.8224 4.06246 17.7072 3.31054 17.5979 2.55862Z" fill="#2AB17B"/>
</svg>
