<svg width="24" height="24" viewBox="0 0 24 24" fill="none" xmlns="http://www.w3.org/2000/svg">
<path d="M6.375 13.875L7.78125 11.1563C7.93413 10.8527 8.16668 10.5963 8.45401 10.4147C8.74134 10.233 9.07265 10.1329 9.4125 10.125H19.5M19.5 10.125C19.7864 10.1245 20.0692 10.1897 20.3265 10.3154C20.5839 10.4412 20.809 10.6242 20.9846 10.8505C21.1602 11.0768 21.2816 11.3403 21.3396 11.6209C21.3975 11.9014 21.3904 12.1914 21.3188 12.4688L19.875 18.0938C19.7705 18.4984 19.5339 18.8565 19.2027 19.1112C18.8715 19.366 18.4647 19.5028 18.0469 19.5H4.5C4.00272 19.5 3.52581 19.3025 3.17417 18.9509C2.82254 18.5992 2.625 18.1223 2.625 17.625V5.43753C2.625 4.94025 2.82254 4.46333 3.17417 4.1117C3.52581 3.76007 4.00272 3.56253 4.5 3.56253H8.15625C8.46983 3.55945 8.77917 3.63508 9.05597 3.78249C9.33276 3.92989 9.56816 4.14436 9.74063 4.40628L10.5 5.53128C10.6707 5.79053 10.9031 6.00333 11.1764 6.15059C11.4497 6.29786 11.7552 6.37498 12.0656 6.37503H17.625C18.1223 6.37503 18.5992 6.57257 18.9508 6.9242C19.3025 7.27583 19.5 7.75275 19.5 8.25003V10.125Z" stroke="#59565C" stroke-width="1.3" stroke-linecap="round" stroke-linejoin="round"/>
</svg>
