<svg width="38" height="38" viewBox="0 0 38 38" fill="none" xmlns="http://www.w3.org/2000/svg">
<path d="M13.0015 12.6277C12.9385 12.6277 13.0645 12.6352 13.0015 12.6277V12.6277ZM7.036 10.0008C6.8515 10.8074 7.357 11.6111 8.164 11.7955C9.682 12.1419 11.4355 12.4298 13 12.6277C13.7455 12.6277 14.3905 12.0744 14.4865 11.3157C14.59 10.4941 14.008 9.74438 13.186 9.64093C11.7175 9.4565 10.2535 9.19861 8.833 8.87325C8.0275 8.68433 7.2205 9.19411 7.036 10.0008ZM13.0015 24.6587C12.9385 24.6587 13.0645 24.6662 13.0015 24.6587V24.6587ZM13.186 21.6719C11.7235 21.489 10.2595 21.2311 8.8345 20.9057C8.029 20.7198 7.222 21.2251 7.0375 22.0333C6.853 22.8399 7.3585 23.6436 8.1655 23.828C9.688 24.1759 11.44 24.4637 13.0015 24.6587C13.747 24.6587 14.3935 24.1039 14.488 23.3452C14.59 22.5235 14.008 21.7739 13.186 21.6719ZM13.0015 18.6252C12.9385 18.6252 13.0645 18.6327 13.0015 18.6252V18.6252ZM13.1875 15.6384C11.719 15.454 10.255 15.1961 8.8345 14.8707C8.029 14.6803 7.222 15.1916 7.0375 15.9983C6.853 16.8049 7.3585 17.6086 8.1655 17.793C9.6835 18.1394 11.437 18.4273 13.0015 18.6252C13.747 18.6252 14.392 18.0719 14.488 17.3132C14.5915 16.4916 14.0095 15.7419 13.1875 15.6384ZM24.9985 24.6602C24.9355 24.6677 25.06 24.6602 24.9985 24.6602V24.6602ZM31.3525 31.6697C29.8435 32.0701 28.297 32.3939 26.722 32.6428C29.3395 33.2935 32.4325 33.8648 35.566 34.0028C36.394 34.0387 37.0345 34.7389 36.9985 35.5666C36.964 36.3718 36.2995 37 35.5015 37C35.479 37 35.4565 37 35.434 37C28.0105 36.6746 21.0325 34.1617 19 33.37C16.9675 34.1617 9.991 36.6746 2.566 37C2.5435 37 2.521 37 2.4985 37C1.7005 37 1.036 36.3718 1.0015 35.5666C0.9655 34.7389 1.606 34.0387 2.434 34.0028C5.5675 33.8648 8.6605 33.2935 11.278 32.6428C9.7015 32.3939 8.155 32.0701 6.646 31.6697C3.322 30.7881 1 27.7968 1 24.3948V7.76071C1 5.65859 1.9525 3.7094 3.6145 2.41694C5.2555 1.13948 7.348 0.698661 9.349 1.20545C13.213 2.18454 16.1905 2.62386 19.0045 2.63285C21.808 2.62386 24.7855 2.18454 28.651 1.20545C30.6505 0.700161 32.746 1.13948 34.3855 2.41694C36.046 3.7094 37 5.65859 37 7.76071V24.3948C37 27.7968 34.678 30.7881 31.3525 31.6697ZM17.5 5.59112C14.8675 5.45617 12.0595 4.98687 8.614 4.11423C8.3155 4.03777 8.014 4.00178 7.7155 4.00178C6.9085 4.00178 6.118 4.27167 5.458 4.78296C4.531 5.50415 4 6.5897 4 7.76071V24.3948C4 26.4369 5.404 28.2362 7.414 28.7699C10.621 29.6201 14.0065 30.1074 17.5 30.2243V5.59112ZM30.5845 28.7699C32.596 28.2377 34 26.4369 34 24.3948V7.76071C34 6.5897 33.469 5.50415 32.542 4.78296C31.636 4.07975 30.4915 3.83085 29.386 4.11423C25.9375 4.98837 23.128 5.45767 20.5 5.59262V30.2258C23.989 30.1104 27.3775 29.6216 30.5845 28.7714V28.7699ZM24.9985 12.6277C24.934 12.6352 25.06 12.6277 24.9985 12.6277V12.6277ZM29.1655 8.87325C27.7435 9.19861 26.278 9.4565 24.8125 9.64093C23.9905 9.74438 23.407 10.4941 23.512 11.3157C23.6065 12.0744 24.253 12.6277 24.9985 12.6277C26.563 12.4313 28.315 12.1434 29.8345 11.7955C30.6415 11.6111 31.147 10.8074 30.9625 10.0008C30.778 9.19261 29.9695 8.68283 29.1655 8.87325ZM24.9985 18.6252C24.934 18.6327 25.06 18.6252 24.9985 18.6252V18.6252ZM29.1655 14.8707C27.7435 15.1961 26.278 15.454 24.8125 15.6384C23.9905 15.7419 23.407 16.4916 23.512 17.3132C23.6065 18.0719 24.253 18.6252 24.9985 18.6252C26.563 18.4288 28.315 18.1409 29.8345 17.793C30.6415 17.6086 31.147 16.8049 30.9625 15.9983C30.778 15.1886 29.9695 14.6818 29.1655 14.8707ZM29.1655 20.9057C27.739 21.2311 26.275 21.489 24.814 21.6719C23.992 21.7739 23.4085 22.5235 23.512 23.3452C23.6065 24.1039 24.253 24.6602 24.9985 24.6602C26.5585 24.4652 28.3105 24.1774 29.8345 23.828C30.6415 23.6436 31.147 22.8399 30.9625 22.0333C30.778 21.2236 29.9695 20.7183 29.1655 20.9057Z" fill="#A037CF"/>
<path d="M13.0015 24.6587C12.9385 24.6587 13.0645 24.6662 13.0015 24.6587ZM13.0015 24.6587C11.44 24.4637 9.688 24.1759 8.1655 23.828C7.3585 23.6436 6.853 22.8399 7.0375 22.0333C7.222 21.2251 8.029 20.7198 8.8345 20.9057C10.2595 21.2311 11.7235 21.489 13.186 21.6719C14.008 21.7739 14.59 22.5235 14.488 23.3452C14.3935 24.1039 13.747 24.6587 13.0015 24.6587ZM13.0015 18.6252C12.9385 18.6252 13.0645 18.6327 13.0015 18.6252ZM13.0015 18.6252C11.437 18.4273 9.6835 18.1394 8.1655 17.793C7.3585 17.6086 6.853 16.8049 7.0375 15.9983C7.222 15.1916 8.029 14.6803 8.8345 14.8707C10.255 15.1961 11.719 15.454 13.1875 15.6384C14.0095 15.7419 14.5915 16.4916 14.488 17.3132C14.392 18.0719 13.747 18.6252 13.0015 18.6252ZM24.9985 24.6602C24.9355 24.6677 25.06 24.6602 24.9985 24.6602ZM24.9985 24.6602C24.253 24.6602 23.6065 24.1039 23.512 23.3452C23.4085 22.5235 23.992 21.7739 24.814 21.6719C26.275 21.489 27.739 21.2311 29.1655 20.9057C29.9695 20.7183 30.778 21.2236 30.9625 22.0333C31.147 22.8399 30.6415 23.6436 29.8345 23.828C28.3105 24.1774 26.5585 24.4652 24.9985 24.6602ZM24.9985 12.6277C24.934 12.6352 25.06 12.6277 24.9985 12.6277ZM24.9985 12.6277C24.253 12.6277 23.6065 12.0744 23.512 11.3157C23.407 10.4941 23.9905 9.74438 24.8125 9.64093C26.278 9.4565 27.7435 9.19861 29.1655 8.87325C29.9695 8.68283 30.778 9.19261 30.9625 10.0008C31.147 10.8074 30.6415 11.6111 29.8345 11.7955C28.315 12.1434 26.563 12.4313 24.9985 12.6277ZM24.9985 18.6252C24.934 18.6327 25.06 18.6252 24.9985 18.6252ZM24.9985 18.6252C24.253 18.6252 23.6065 18.0719 23.512 17.3132C23.407 16.4916 23.9905 15.7419 24.8125 15.6384C26.278 15.454 27.7435 15.1961 29.1655 14.8707C29.9695 14.6818 30.778 15.1886 30.9625 15.9983C31.147 16.8049 30.6415 17.6086 29.8345 17.793C28.315 18.1409 26.563 18.4288 24.9985 18.6252ZM13.0015 12.6277C12.9385 12.6277 13.0645 12.6352 13.0015 12.6277ZM7.036 10.0008C6.8515 10.8074 7.357 11.6111 8.164 11.7955C9.682 12.1419 11.4355 12.4298 13 12.6277C13.7455 12.6277 14.3905 12.0744 14.4865 11.3157C14.59 10.4941 14.008 9.74438 13.186 9.64093C11.7175 9.4565 10.2535 9.19861 8.833 8.87325C8.0275 8.68433 7.2205 9.19411 7.036 10.0008ZM31.3525 31.6697C29.8435 32.0701 28.297 32.3939 26.722 32.6428C29.3395 33.2935 32.4325 33.8648 35.566 34.0028C36.394 34.0387 37.0345 34.7389 36.9985 35.5666C36.964 36.3718 36.2995 37 35.5015 37C35.479 37 35.4565 37 35.434 37C28.0105 36.6746 21.0325 34.1617 19 33.37C16.9675 34.1617 9.991 36.6746 2.566 37C2.5435 37 2.521 37 2.4985 37C1.7005 37 1.036 36.3718 1.0015 35.5666C0.9655 34.7389 1.606 34.0387 2.434 34.0028C5.5675 33.8648 8.6605 33.2935 11.278 32.6428C9.7015 32.3939 8.155 32.0701 6.646 31.6697C3.322 30.7881 1 27.7968 1 24.3948V7.76071C1 5.65859 1.9525 3.7094 3.6145 2.41694C5.2555 1.13948 7.348 0.698661 9.349 1.20545C13.213 2.18454 16.1905 2.62386 19.0045 2.63285C21.808 2.62386 24.7855 2.18454 28.651 1.20545C30.6505 0.700161 32.746 1.13948 34.3855 2.41694C36.046 3.7094 37 5.65859 37 7.76071V24.3948C37 27.7968 34.678 30.7881 31.3525 31.6697ZM17.5 5.59112C14.8675 5.45617 12.0595 4.98687 8.614 4.11423C8.3155 4.03777 8.014 4.00178 7.7155 4.00178C6.9085 4.00178 6.118 4.27167 5.458 4.78296C4.531 5.50415 4 6.5897 4 7.76071V24.3948C4 26.4369 5.404 28.2362 7.414 28.7699C10.621 29.6201 14.0065 30.1074 17.5 30.2243V5.59112ZM30.5845 28.7699C32.596 28.2377 34 26.4369 34 24.3948V7.76071C34 6.5897 33.469 5.50415 32.542 4.78296C31.636 4.07975 30.4915 3.83085 29.386 4.11423C25.9375 4.98837 23.128 5.45767 20.5 5.59262V30.2258C23.989 30.1104 27.3775 29.6216 30.5845 28.7714V28.7699Z" stroke="white"/>
</svg>
