<svg width="22" height="26" viewBox="0 0 22 26" fill="none" xmlns="http://www.w3.org/2000/svg">
<path d="M20.3332 14.1667C20.3332 20 16.2498 22.9167 11.3965 24.6083C11.1424 24.6944 10.8663 24.6903 10.6148 24.5967C5.74984 22.9167 1.6665 20 1.6665 14.1667V5.99999C1.6665 5.69057 1.78942 5.39382 2.00821 5.17503C2.22701 4.95624 2.52375 4.83332 2.83317 4.83332C5.1665 4.83332 8.08317 3.43332 10.1132 1.65999C10.3603 1.44882 10.6747 1.33279 10.9998 1.33279C11.3249 1.33279 11.6393 1.44882 11.8865 1.65999C13.9282 3.44499 16.8332 4.83332 19.1665 4.83332C19.4759 4.83332 19.7727 4.95624 19.9915 5.17503C20.2103 5.39382 20.3332 5.69057 20.3332 5.99999V14.1667Z" stroke="#905CC1" stroke-width="2" stroke-linecap="round" stroke-linejoin="round"/>
</svg>
