<svg width="38" height="38" viewBox="0 0 38 38" fill="none" xmlns="http://www.w3.org/2000/svg">
<path d="M35.6799 2.32301C35.1421 1.77869 34.4729 1.38227 33.737 1.17205C33.0012 0.961841 32.2236 0.944938 31.4793 1.12298L7.4755 6.1781C6.09315 6.36766 4.79118 6.93934 3.71622 7.82876C2.64125 8.71819 1.83599 9.89003 1.39111 11.2123C0.946234 12.5346 0.879414 13.9548 1.19818 15.3131C1.51694 16.6713 2.20862 17.9135 3.19533 18.8999L5.77274 21.4755C5.91224 21.6149 6.02286 21.7805 6.09829 21.9627C6.17372 22.145 6.21246 22.3403 6.21231 22.5375V27.2896C6.21562 27.9578 6.36945 28.6166 6.66238 29.2172L6.65038 29.2277L6.68938 29.2667C7.12897 30.1504 7.84694 30.8651 8.7327 31.3007L8.77171 31.3397L8.78221 31.3277C9.38285 31.6206 10.0418 31.7744 10.71 31.7777H15.4628C15.8604 31.7774 16.2419 31.935 16.5234 32.2157L19.0993 34.7913C19.7902 35.4898 20.6125 36.0446 21.5189 36.4238C22.4252 36.803 23.3977 36.9992 24.3802 37.0009C25.1989 36.9999 26.0121 36.8661 26.788 36.6049C28.0984 36.1746 29.2625 35.3869 30.1489 34.3304C31.0354 33.2739 31.6089 31.9908 31.8048 30.6257L36.8681 6.57261C37.0554 5.82206 37.0444 5.03571 36.8361 4.2907C36.6278 3.5457 36.2294 2.86763 35.6799 2.32301ZM7.89707 19.3574L5.31817 16.7819C4.71765 16.1959 4.29676 15.4508 4.1049 14.634C3.91304 13.8173 3.95817 12.9628 4.235 12.1708C4.50338 11.3582 4.99952 10.6399 5.66441 10.1011C6.32931 9.56234 7.13497 9.22586 7.98559 9.13168L31.7508 4.12905L9.20978 26.6701V22.5375C9.21205 21.947 9.0972 21.3619 8.87188 20.8161C8.64656 20.2702 8.31524 19.7744 7.89707 19.3574ZM28.8569 30.1127C28.7417 30.9412 28.3978 31.7212 27.8639 32.3652C27.3299 33.0092 26.627 33.4916 25.8341 33.7583C25.0412 34.025 24.1896 34.0655 23.3749 33.8752C22.5602 33.6848 21.8148 33.2712 21.2222 32.6808L18.6418 30.1007C18.2253 29.682 17.7298 29.3499 17.1842 29.1239C16.6385 28.8978 16.0534 28.7822 15.4628 28.7837H11.3296L33.8737 6.25011L28.8569 30.1127Z" fill="#3B70C7" stroke="white"/>
</svg>
