<svg width="22" height="22" viewBox="0 0 22 22" fill="none" xmlns="http://www.w3.org/2000/svg">
<path d="M17.4167 2.75H4.58333C3.57081 2.75 2.75 3.57081 2.75 4.58333V17.4167C2.75 18.4292 3.57081 19.25 4.58333 19.25H17.4167C18.4292 19.25 19.25 18.4292 19.25 17.4167V4.58333C19.25 3.57081 18.4292 2.75 17.4167 2.75Z" stroke="#905CC1" stroke-width="1.5" stroke-linecap="round" stroke-linejoin="round"/>
<path d="M2.75 8.25001C2.75 7.76377 2.94315 7.29746 3.28697 6.95364C3.63079 6.60983 4.0971 6.41667 4.58333 6.41667H17.4167C17.9029 6.41667 18.3692 6.60983 18.713 6.95364C19.0568 7.29746 19.25 7.76377 19.25 8.25001" stroke="#905CC1" stroke-width="1.5" stroke-linecap="round" stroke-linejoin="round"/>
<path d="M2.75 10.0833H5.5C6.23333 10.0833 6.96667 10.3583 7.425 10.9083L8.43333 11.7333C9.9 13.2 12.1917 13.2 13.6583 11.7333L14.6667 10.9083C15.125 10.45 15.8583 10.0833 16.5917 10.0833H19.25" stroke="#905CC1" stroke-width="1.5" stroke-linecap="round" stroke-linejoin="round"/>
</svg>
